/* XPM */
static char *e26f3fea67464fc4a8df8d22e9f29d1fF22bo4lWpJZtnWzP[] = {
/* columns rows colors chars-per-pixel */
"50 50 113 2 ",
"   c #0C0C0C",
".  c #0A0D12",
"X  c #0A0F19",
"o  c #0B1019",
"O  c #111111",
"+  c #21031D",
"@  c #0A1729",
"#  c #0C1C2B",
"$  c #111D20",
"%  c #0A1B38",
"&  c #270321",
"*  c #2B0325",
"=  c #210822",
"-  c #290932",
";  c #250E3D",
":  c #0E222D",
">  c #10262F",
",  c #102A32",
"<  c #10353F",
"1  c #211042",
"2  c #103641",
"3  c #103B47",
"4  c #103B48",
"5  c #082D6C",
"6  c #09336D",
"7  c #0A3C6F",
"8  c #193E60",
"9  c #082E75",
"0  c #083373",
"q  c #093C74",
"w  c #07337C",
"e  c #0F404E",
"r  c #0F4454",
"t  c #0F4759",
"y  c #0E4C5F",
"u  c #0A416F",
"i  c #0E5468",
"p  c #0A4473",
"a  c #0B4B74",
"s  c #184B70",
"d  c #0C5374",
"f  c #0D5A73",
"g  c #0C5578",
"h  c #0D5B79",
"j  c #0D647D",
"k  c #073586",
"l  c #063C95",
"z  c #15389E",
"x  c #113FB5",
"c  c #155D86",
"v  c #0F42B2",
"b  c #1276A2",
"n  c #0C46C5",
"m  c #054DCE",
"M  c #0B51D4",
"N  c #0952DD",
"B  c #095BDE",
"V  c #0A63DE",
"C  c #096CDF",
"Z  c #0A74DF",
"A  c #0656E5",
"S  c #055EE6",
"D  c #0456E9",
"F  c #055EF1",
"G  c #0563E6",
"H  c #066AE7",
"J  c #066EE8",
"K  c #0672E7",
"L  c #0973E0",
"P  c #0A7CE0",
"I  c #0673E8",
"U  c #067BE9",
"Y  c #0F8EBD",
"T  c #108AB7",
"R  c #0A95C0",
"E  c #0D95C9",
"W  c #0D9CCC",
"Q  c #09A2CE",
"!  c #09A4D5",
"~  c #09ACDC",
"^  c #0A84E0",
"/  c #0A8CE1",
"(  c #0684E9",
")  c #078CEA",
"_  c #0A96E1",
"`  c #0A92E1",
"'  c #0A99E1",
"]  c #0A9BE2",
"[  c #0A9DE1",
"{  c #0A9EE2",
"}  c #0791EA",
"|  c #0793EA",
" . c #0795EB",
".. c #0798EA",
"X. c #079AEB",
"o. c #079CEB",
"O. c #079EEB",
"+. c #0BA0E2",
"@. c #0BA3E2",
"#. c #0AA4E2",
"$. c #0BA6E2",
"%. c #0BA8E1",
"&. c #07A0EB",
"*. c #07A2EB",
"=. c #07A6EB",
"-. c #07A4EC",
";. c #07A8EC",
":. c #08AAEC",
">. c #08ADEC",
",. c #08AFEC",
"<. c #08B1ED",
"1. c #09B2EC",
"2. c #08B5EF",
/* pixels */
"+ + s E %.$.$.@.@.{ { [ ] ] _ _ ` / / / ^ / ^ ^ ^ P P P L L L L L L H C C V V V V B B B B B m z - * ",
"+ b ! t , > > : : : : : : : : : : : : : : : # : # # : # : # # # # # # # @ # @ # # @ @ @ @ @ % l N ; ",
"8 ~ $ 4 j j h h h h h f g g g g d d a d a a a p a a a p a q p p p q q q q q 0 q 0 0 0 0 9 5 5   k x ",
"T i 2 r O O O O O O O O O O O   O O . .   O O   O . .   . O                                 X 5 . D ",
"W 3 j O O O O O O O O O O O O O   O O   O     O   O O       O     O                           9   m ",
"W 3 j O O O O O O O   O O   O   O . O   O O O   O     O                                       9   m ",
"W 3 j O O O O O O O   O O   O O O O   O           O       O O                                 5   m ",
"W 4 j O O O O O O O O O O O O O   O O   O O O O O   O O                                       5   m ",
"W 4 j O O O O O O O   O O   O   O   O O O         O O   O O                                   9   m ",
"W 4 j O O O O O O O O O O O O O O O O   O       O O         O                                 9   m ",
"W 4 j O O O O O O O   O   O O O   O O O                   O                                   9   m ",
"W 4 j O O O O O O O O O O O O   O                         O                                   9   m ",
"W 4 j O O O O O O O O   O O                                                                   9   m ",
"W 4 c O O O O O O O O O O O                                                                   5   m ",
"W 4 j O O O O O O   O O O                                                                     9   m ",
"W 4 j O O O O O O O O O O O                                                                   9   n ",
"W 3 j O O O O O O O O O O O                                                                   9   m ",
"W 3 j O O O O O O O O O O O                                                                   5   m ",
"W 3 j O O O O O O O O O O O                                                                   9   m ",
"W 3 j O O O O O O O O O O O O                                                                 9   m ",
"W 3 j = O O O O O $ O O O O O                                                                 9   m ",
"W 3 j O O O O O O O O O O O O O                                             O O               5   n ",
"W 3 j O O O O O O O O O O O                                                                   5   m ",
"W 3 j O O O O O $ O O O O O O                                                                 5   m ",
"W 3 j O O O O O O O O $ O O O O                                                               9   m ",
"W 3 j $ O O O O O O O O O O O O                                                               9   m ",
"W 3 j O O O O O = $ O O $ = O O                                                               9   m ",
"W 3 j O O O O O O O O O O O O O                                                               9   n ",
"W 3 j O O O O O O $ $ O O O                                                 .                 9   m ",
"W 3 j O O O O O O O O O O O                                                                   5   m ",
"W 3 j O O O O O O O O O O O                                                                   9   n ",
"W 3 j O O O O O O O O O O O                                                                   5   m ",
"W 3 j O O O O O O O O O O $ O O                                                               5   n ",
"W 3 j O O O O O O O O O O O O O                                                               5   m ",
"W 3 j O O O O O O O O O O O O O                                                               9   m ",
"W e j O O O O O O O O O O O O O                                                               9   m ",
"W 3 j O O O O O O O O O O O O O O                                                             5   n ",
"W 3 j = O O O O O O O O O O O O O O                                                           9   m ",
"W 3 j O O O O O O O O O O O O O O O O O                                                       9   m ",
"W 3 j O O O O O O O O O O O O O O O O O O O O                                                 9   m ",
"W 4 j O O O O O O O O O O O O O O O O O O O O O O O   O           O                           5   n ",
"W 4 j O O O O O O O O O O O O O O O   O   O   O     O O O     O O                             5   m ",
"W 4 j O O O O O O O O O O O O O O     O O O O O O O O                                         5   m ",
"W 4 j O O O O   O O O O O O O O   O O O O           O   O   O                                 9   m ",
"W 4 j O O O O O O O O O O O   O O   O   O   O   O     O     O   O                             5   m ",
"W 3 j O O O O O O O O   O O O O O     O O O   O   O O     O                                   9   m ",
"Y y 4 2 O O O O O O O O O O   O   O O     O     O             O   O     .                     9   A ",
"s ! O t f f f f f d f f i s i i a a i a a a u a u a u u u 7 u q 7 7 7 p 6 6 6 5 5 5 5 5 5 5 5 X 9 n ",
"= Y R , O O O O O O O O O O O O   O O   O O           O                                     . w A 1 ",
"+ = c 1.2.1.1.>.:.;.-.;.&.o.o.X.X...| | | ) ) ) ) ) ( ( ( U U U U U I K J J J H H G G G S S F v ; & "
};
