/* XPM */
static char *_2b03a29886c40eb8bbc80cb52e13981uCoz9pfjQ8vmSRF9[] = {
/* columns rows colors chars-per-pixel */
"50 50 127 2 ",
"   c #000000",
".  c #080707",
"X  c #090708",
"o  c #0C0A0A",
"O  c #130D0E",
"+  c #1A0D0E",
"@  c #150F10",
"#  c #1B0F11",
"$  c #121111",
"%  c #1B1213",
"&  c #210F0F",
"*  c #240F10",
"=  c #221315",
"-  c #2B1315",
";  c #261518",
":  c #2B1418",
">  c #321416",
",  c #391617",
"<  c #33161B",
"1  c #3C161C",
"2  c #31181B",
"3  c #3C181E",
"4  c #49161E",
"5  c #40181F",
"6  c #50171F",
"7  c #46201E",
"8  c #431620",
"9  c #451A21",
"0  c #4C1C24",
"q  c #521B24",
"w  c #5D1C24",
"e  c #5C1E28",
"r  c #641F29",
"t  c #701F26",
"y  c #781D26",
"u  c #562421",
"i  c #592422",
"p  c #5F392C",
"a  c #6D2726",
"s  c #622F27",
"d  c #65212A",
"f  c #6D232C",
"g  c #722329",
"h  c #7C232B",
"j  c #742F30",
"k  c #7A2C31",
"l  c #772D3A",
"z  c #753A34",
"x  c #79422A",
"c  c #83212E",
"v  c #852B2A",
"b  c #833D2F",
"n  c #862433",
"m  c #9E2C34",
"M  c #873A33",
"N  c #88303B",
"B  c #9A3033",
"V  c #A13133",
"C  c #AD3C34",
"Z  c #AF3C39",
"A  c #B53B3C",
"S  c #88442D",
"D  c #84482F",
"F  c #91452E",
"G  c #95562E",
"H  c #874033",
"J  c #884034",
"K  c #894E31",
"L  c #9E5E36",
"P  c #9E5139",
"I  c #B1442F",
"U  c #B84A36",
"Y  c #B2403C",
"T  c #B8443D",
"R  c #A75B33",
"E  c #AA5934",
"W  c #A7503C",
"Q  c #B35C32",
"!  c #B35D3B",
"~  c #BC5F39",
"^  c #B96136",
"/  c #B6673B",
"(  c #B3683C",
")  c #C2503C",
"_  c #CC513B",
"`  c #D95F39",
"'  c #C16B3C",
"]  c #CC6D3F",
"[  c #D4673F",
"{  c #CC723D",
"}  c #D8703D",
"|  c #E26B3B",
" . c #A53442",
".. c #AA3342",
"X. c #AC3A50",
"o. c #9B5B42",
"O. c #BB4A43",
"+. c #B5404B",
"@. c #BB7146",
"#. c #C8514A",
"$. c #C6594B",
"%. c #CE5A48",
"&. c #C76940",
"*. c #CB6F40",
"=. c #D36243",
"-. c #DB6243",
";. c #DE6946",
":. c #D46448",
">. c #D47144",
",. c #DB7A42",
"<. c #D1744A",
"1. c #D3764D",
"2. c #D07049",
"3. c #DC7D4E",
"4. c #C36C55",
"5. c #C96E56",
"6. c #D66954",
"7. c #DD7D56",
"8. c #D27659",
"9. c #E27043",
"0. c #E47741",
"q. c #E17841",
"w. c #E27946",
"e. c #E0774A",
"r. c #E47D4A",
"t. c #DA7E66",
"y. c #EC7962",
/* pixels */
"                                                                                                    ",
"                                                                                                    ",
"                                                                                                    ",
"                                                                                                    ",
"                                                                                                    ",
"                                                                                                    ",
"                                                                                                    ",
"                                                                                                    ",
"                                                                                                    ",
"                                                                                                    ",
"                                                                                                    ",
"                                                                                                    ",
"                                                                                                    ",
"                                              . . o X . .                                           ",
"                                          . X o O + O O O X X .                                     ",
"                                      . . O # = > , : = % O O .                                     ",
"                                  . . O # : 5 q t h e 8 < : = @ X                                   ",
"                              . X O O - 9 f ..#.;.| =.I h 0 < = O X .                               ",
"                              X o # : e  .-.{ L D x K ( 7.O.f < = @ X                               ",
"                            o o % : w A r.G u 1 > : - > p @.6.r : * O .                             ",
"                          X $ $ = 9 m 0.G 4 : # $ $ % % > 4 ( ) 9 = + o .                           ",
"                          X o % 2 f ` R q * $ $ $ $ $ $ O - u { m 2 * o                             ",
"                        . o $ % 9 +.,.a - $ $ $ $ $ $ $ $ $ : D [ q - O .                           ",
"                        . O $ = q _ Q 9 @ $ $ $ $ $ $ $ $ $ % i ] c : O X                           ",
"                        X o $ = d 9.F < $ $ $ $ $ $ $ $ $ $ $ , ^ V < O X                           ",
"                        X o $ ; d e.M 2 $ $ $ $ $ $ $ $ $ $ $ 2 E Y 1 @ X                           ",
"                        . o $ ; e e.J < $ $ $ $ $ $ $ $ $ $ $ 3 R Z 1 @ X                           ",
"                          X o ; l y.P 5 $ $ $ $ $ $ $ $ $ $ % 0 / m < O X                           ",
"                          . $ = 9 O.' q : $ $ $ $ $ $ $ $ $ 2 s <.n : O X                           ",
"                            . O ; v q.M 5 ; $ $ $ $ $ $ $ = 5 o.%.q % @ X                           ",
"                            . o # < I *.f 3 ; % $ $ $ % = 5 z t.X.2 % o X                           ",
"                              . o # w :.1.k 9 2 ; % = 2 0 H <.T 0 ; $ o X                           ",
"                                . O ; g $.7.W j d r a M ! } C q % $ $ o .                           ",
"                                . X O = 6 v ~ 8.5.4.' 2.U y 1 % O O o . .                           ",
"                                  . . o O * > d k N t w 1 = O o o o X .                             ",
"                                      . . . O + & & + O o X X . X X                                 ",
"                                              .   . . .   .   .                                     ",
"                                                                                                    ",
"                                                                                                    ",
"                                                                                                    ",
"                                                                                                    ",
"                                                                                                    ",
"                                                                                                    ",
"                                                                                                    ",
"                                                                                                    ",
"                                                                                                    ",
"                                                                                                    ",
"                                                                                                    ",
"                                                                                                    ",
"                                                                                                    "
};
