/* XPM */
static char *_922e109e92645acb42820f79894be41BSXKnDsWwEdqlslh[] = {
/* columns rows colors chars-per-pixel */
"50 50 193 2 ",
"   c #0C0C0C",
".  c #14130F",
"X  c #1C0E11",
"o  c #111111",
"O  c #1D1111",
"+  c #1C1912",
"@  c #250E14",
"#  c #360D1B",
"$  c #231412",
"%  c #2B1414",
"&  c #271C13",
"*  c #341915",
"=  c #36111A",
"-  c #381917",
";  c #352C0F",
":  c #2C2511",
">  c #322811",
",  c #392614",
"<  c #411719",
"1  c #493C0F",
"2  c #462617",
"3  c #472917",
"4  c #4C2916",
"5  c #53261C",
"6  c #5F231F",
"7  c #493411",
"8  c #463513",
"9  c #573716",
"0  c #60261F",
"q  c #663819",
"w  c #4E0C23",
"e  c #5D1D22",
"r  c #590E27",
"t  c #641227",
"y  c #5F2120",
"u  c #6E2323",
"i  c #7F3D20",
"p  c #732924",
"a  c #52440F",
"s  c #4F4110",
"d  c #534010",
"f  c #67540F",
"g  c #7F431E",
"h  c #785614",
"j  c #7E650F",
"k  c #920E3A",
"l  c #8D1D31",
"z  c #9B123B",
"x  c #880C38",
"c  c #A61A3B",
"v  c #8B3E24",
"b  c #963E27",
"n  c #942233",
"m  c #962930",
"M  c #8A2D2C",
"N  c #BC253E",
"B  c #BD2C3B",
"V  c #BD3B35",
"C  c #B93636",
"Z  c #C22C3E",
"A  c #C33A39",
"S  c #C6363B",
"D  c #DB3E3F",
"F  c #80471D",
"G  c #985B1C",
"H  c #98551F",
"J  c #A45E1F",
"K  c #996B16",
"L  c #996319",
"P  c #A4641D",
"I  c #AC651E",
"U  c #A56C1A",
"Y  c #A67416",
"T  c #A97B15",
"R  c #BF771C",
"E  c #944524",
"W  c #954B22",
"Q  c #975120",
"!  c #AA432B",
"~  c #B2412F",
"^  c #A35522",
"/  c #B8522B",
"(  c #B06121",
")  c #C87B1E",
"_  c #C6542E",
"`  c #C55B2B",
"'  c #C54734",
"]  c #DA483A",
"[  c #DD5B32",
"{  c #D95535",
"}  c #EF4D3E",
"|  c #F14F3E",
" . c #EE543C",
".. c #F2533D",
"X. c #F9563E",
"o. c #F25B3A",
"O. c #F95C3C",
"+. c #C76C24",
"@. c #C66229",
"#. c #C66626",
"$. c #DE662E",
"%. c #DE6D2C",
"&. c #C77421",
"*. c #CB7023",
"=. c #DF7B26",
"-. c #DE7329",
";. c #DD6031",
":. c #E3732A",
">. c #EC7C2A",
",. c #FB7C2E",
"<. c #F3752F",
"1. c #FA6737",
"2. c #FA6C35",
"3. c #FA6339",
"4. c #F66A34",
"5. c #FB7432",
"6. c #FB7930",
"7. c #B91743",
"8. c #B20C46",
"9. c #BC2140",
"0. c #CE0D4F",
"q. c #C00D4A",
"w. c #C21C45",
"e. c #C21349",
"r. c #C21646",
"t. c #D91B4C",
"y. c #D8144F",
"u. c #CD0A50",
"i. c #D70E52",
"p. c #D91151",
"a. c #ED0D5A",
"s. c #F00A5C",
"d. c #EC1357",
"f. c #EF1D54",
"g. c #F61C56",
"h. c #F6145A",
"j. c #F61958",
"k. c #C22341",
"l. c #D92748",
"z. c #DA3343",
"x. c #DB3B40",
"c. c #F72E4F",
"v. c #F7334D",
"b. c #F8354C",
"n. c #F83B49",
"m. c #F72354",
"M. c #F72A51",
"N. c #E92D4A",
"B. c #ED4244",
"V. c #F34245",
"C. c #F84446",
"Z. c #F34B41",
"A. c #F84C43",
"S. c #F84048",
"D. c #F95240",
"F. c #B08D0E",
"G. c #AA8510",
"H. c #B48513",
"J. c #C59C0F",
"K. c #C8841A",
"L. c #C78918",
"P. c #C99314",
"I. c #C89B11",
"U. c #E08C1E",
"Y. c #E0931C",
"T. c #E19C19",
"R. c #FC9F1F",
"E. c #D6A90F",
"W. c #D6A90F",
"Q. c #CCA40E",
"!. c #E4B50E",
"~. c #E1A414",
"^. c #E1AD11",
"/. c #EFAF15",
"(. c #FDA41E",
"). c #FDAC1A",
"_. c #F1A917",
"`. c #FEB516",
"'. c #FEBB14",
"]. c #FEB118",
"[. c #DF8422",
"{. c #DF8920",
"}. c #FC8E27",
"|. c #FB832B",
" X c #FC8A29",
".X c #F3802A",
"XX c #FC9424",
"oX c #FD9B21",
"OX c #E88923",
"+X c #FDC60F",
"@X c #FEC80E",
"#X c #F6C20E",
"$X c #FEC211",
/* pixels */
"+X^.^.^.~.~.T.T.Y.Y.{.{.{.[.[.=.=.=.-.*.%.$.$.;.;.[ [ { { ] ] ] D D D x.x.z.D l.l.t.l.t.r.y.y.i.i.s.",
"W.o o o o o o o o o o o o o o o   o o o   o o     o o       o o                                   u.",
"W.o o o o o o o o o o   o o o o o   o o o     o     o                                             u.",
"W.o o o o o o o o o o o   o   o o o   o o   o   o     o   o                                       u.",
"W.o + o o o o o o o o o o o o o   o o   o   o   o                                                 u.",
"W.o o o o o o o o o   o o o o o o   o     o   o     o     o                                       u.",
"W.o o o o o o o o o o o o o o o     o o o o o % = = % X       o                                   q.",
"~.o o o o o o o o o o   o o o o o o X e l l.m.m.m.g.g.j.y.k r X                                   u.",
"W.o o o o o o o o o o o o o o o * m N.b.v.c.c.M.m.m.g.g.j.h.h.a.k #                               u.",
"W.o o o o o o o o o o o o o + M B.C.S.n.b.v.c.c.M.m.m.m.g.g.j.h.h.s.x X                           u.",
"W.+ o o o o o o o o o o o - ~ Z.A.S.S.S.n.b.b.v.c.c.M.m.m.g.g.j.h.h.s.c #                         u.",
"W.o o o o o o o o o o o 5 ' D.D.A.A.C.S.S.n.n.b.v.c.c.M.m.m.m.g.h.h.h.h.u.w                       u.",
"W.o o o o o o o o o o 5 { D.D.D.| A.A.C.C.C.n.n.b.v.c.c.m.M.m.m.g.g.h.h.h.i.w                     q.",
"W.o o + o o o o o o , { 3.O.O.X...' V A A C C Z B B B N 9.9.9.9.w.f.g.h.h.h.u.w                   u.",
"W.o o o o o o o o + / 2.1.3.O.O.! % O O O O O O O X X X X X X X X c g.g.h.h.h.c                   u.",
"W.o o o o o o o o E 4.2.2.1.1.3.b                                 l m.m.g.g.h.a.x                 u.",
"^.o o o o o o o , <.5.5.2.1.1.3.b                                 l M.m.m.g.g.g.h.=               u.",
"W.o o o o o o o Q ,.,.5.5.5.5.1.E     o o                         l M.M.M.m.g.g.j.z               u.",
"W.o o o o o o : |.|.,.6.6.5.5.2.E     o                           l c.c.M.m.m.m.g.f.@             u.",
"W.o o o o o o q |.|.|.|.,.6.6.5.E o       o   % 0 0 0 6 y y y e u S b.v.b.M.M.M.m.g.t             u.",
"W.o o o o o o P }.}.|.|.|.6.6.6.W o   o   o   6 o.....| } } V.n.n.n.n.b.v.c.c.M.M.m.c             u.",
"W.o o o o o o OX}.}.}.|.|.|.|.6.W o   o       5 o.o.....} } | } C.C.C.n.b.b.v.c.M.M.N.            q.",
"W.o o + o o : oXXXXX}.}.|.|.|.|.Q   o   o     X * * * * * = p A.A.C.C.n.n.n.b.b.c.c.M.X           u.",
"W.o o o o o , oXoXXXXX}.}.}.|.|.Q o o     o o               - } A.A.A.C.C.n.n.b.b.c.c.=           u.",
"W.o + o o o 3 oXoXoXoXXX}.}.}.|.Q     o o o   o             -  .X.| A.C.C.n.n.n.b.b.c.<           u.",
"W.o o o o o 8 ).(.R.oXoXXXXX}.}.Q o o       o     o o   o   -  .X.X.| A.A.A.C.n.n.n.b.<           u.",
"W.o o o o o , ).(.(.(.oXoXXXXXXXQ . o o o     o o   .       , o.O.X.X.X.| A.C.C.V.n.b.=           u.",
"W.o o + o o : ].).).(.(.R.oXoXXXL .   o o o   $ 3 3 2 2 2 2 v 3.O.O.X.X.X.A.A.A.C.} B.X           q.",
"W.o + o o o o _.].).).(.(.R.oXoXL o o o o o   9 6.6.6.5.2.2.2.1.1.O.O.O.X.X.| | | n.V.            u.",
"W.o o o o o o H.`.].).).).(.(.oXL o o o   o o 9 |.|.6.6.5.5.2.2.1.1.1.O.X.X.X.X.X.| C             u.",
"W.o o o o o o h `.`.].].).(.(.R.L o o   o o o : g g g i g i v i v [ 1.O.O.O.X.X.X.X.u             u.",
"W.o o o o o o : '.'.`.`.].).).(.L o o o o o o o o o   o o   o   . E 2.1.1.O.O.X.X.| %             u.",
"W.o o o o o o o H.'.'.`.`.].].).K o o o o o   o o   o o   o   o   E 4.4.1.1.O.O.O.~               q.",
"W.o o + o o o o 8 $X$X'.'.`.].).K o o o o o o o o o   o o o o   o W 5.5.2.2.1.1.3.<               u.",
"W.o o o o o o o + G.$X$X$X`.`.].K o o o o o o o . o o o o o o .   W 5.5.5.2.2.1.!                 u.",
"W.o o o o o o o o : I.$X$X$X'.'.T + + o o o o + o o o o o . o . o ^ ,.,.5.5.2._ &                 u.",
"W.+ o o o o o o o o s !.$X+X'.'./.H.Y Y Y Y Y U U U P P P P J ^ ( >.|.,.6.5.$.5                   u.",
"W.o o o o o o o o o o f !.+X+X$X'.'.`.`.).).).(.(.oXoXoXXXXXXX}. X X|.|.,.:.q                     u.",
"W.o o o o o o o o o o o f !.+X$X+X'.'.'.`.].].).).(.(.(.oXoXXXXXXX X X|.:.q                       q.",
"W.o o o o o o o o o o o o s W.+X+X+X'.'.'.'.].].).).(.(.(.oXoXXXXX}.}.*.7                         u.",
"Q.o o o o o o o o o o o o o : G.@X@X@X$X$X`.`.`.].).).(.(.R.oXoXR.XXP O                           u.",
"W.o o o o o o o o o o o o o o o a F.@X$X$X$X'.'.`.].].).).(.(.oX&.7                               u.",
"W.o o o o o o o o o o o o o o o   o > j I.'.$X'.'.`.`.].).H.h ,                                   u.",
"W.o o o o o o o o o o o o o o o o o .     + > 1 d d 8 , o o                                       u.",
"W.o o o o o o o o o o o o o o o o   o o .   o   o o       o                                       u.",
"W.o o o o o o o o o o o o o o o   o o     o           o                                           u.",
"W.o o + o o o o o o o o o o o o   o   o o     o o   o                                             u.",
"W.o o o o o o o o o o o o o o o o   o o   o o       o   o                                         i.",
"W.o o o o o o o o o o o o o o o o o o o o o o o o o o o o o o o                                   u.",
"$XI.I.I.P.P.L.K.K.K.K.K.K.R *.+.@.R +.@./ @.` ` _ _ / ' ' ~ ' ' A A A A S Z Z Z Z 9.w.r.r.r.q.N c a."
};
