/* XPM */
static char *d4660c228ca04838efd9e7c679ff49dbxRFl0SPP53T4UEWb[] = {
/* columns rows colors chars-per-pixel */
"50 50 239 2 ",
"   c black",
".  c #010000",
"X  c #150303",
"o  c #350606",
"O  c #4B0909",
"+  c #560A0A",
"@  c #580A0A",
"#  c #520A0A",
"$  c #420808",
"%  c #260505",
"&  c #070101",
"*  c #040101",
"=  c #340606",
"-  c #7F0F0F",
";  c #C21717",
":  c #E21B1B",
">  c #DB1A1A",
",  c #A61414",
"<  c #170303",
"1  c #060101",
"2  c #4C0909",
"3  c #B91616",
"4  c #E11B1B",
"5  c #D81A1A",
"6  c #841010",
"7  c #1F0404",
"8  c #2D0606",
"9  c #AE1515",
"0  c #D61A1A",
"q  c #6A0D0D",
"w  c #0A0101",
"e  c #040000",
"r  c #570A0A",
"t  c #D91A1A",
"y  c #941212",
"u  c #200404",
"i  c #080101",
"p  c #710E0E",
"a  c #D31919",
"s  c #E01B1B",
"d  c #B01515",
"f  c #300606",
"g  c #770E0E",
"h  c #B81616",
"j  c #670C0C",
"k  c #D71A1A",
"l  c #210404",
"z  c #490909",
"x  c #CD1919",
"c  c #AC1515",
"v  c #0B0101",
"b  c #180303",
"n  c #C91818",
"m  c #6D0D0D",
"M  c #831010",
"N  c #DA1A1A",
"B  c #E21C1C",
"V  c #EB5D5D",
"C  c #F5AFAF",
"Z  c #F8C8C8",
"A  c #F4A8A8",
"S  c #EA5959",
"D  c #E42B2B",
"F  c #EF8181",
"G  c #F7BFBF",
"H  c #F7C3C3",
"J  c #F08C8C",
"K  c #E53131",
"L  c #861010",
"P  c #780E0E",
"I  c #EC6565",
"U  c #FCE8E8",
"Y  c white",
"T  c #FCE9E9",
"R  c #E32525",
"E  c #F5B2B2",
"W  c #FEF9F9",
"Q  c #FFFBFB",
"!  c #F5B1B1",
"~  c #E42828",
"^  c #090101",
"/  c #CE1818",
"(  c #E32020",
")  c #F7C2C2",
"_  c #FDFDFD",
"`  c #F8C6C6",
"'  c #E32121",
"]  c #E95555",
"[  c #FEFAFA",
"{  c #FEFEFE",
"}  c #FEF6F6",
"|  c #EC6969",
" . c #5A0B0B",
".. c #2F0606",
"X. c #FBDCDC",
"o. c #B1B1B1",
"O. c #3E3E3E",
"+. c #989898",
"@. c gray98",
"#. c #FBE2E2",
"$. c #E42C2C",
"%. c gray93",
"&. c gray42",
"*. c #505050",
"=. c #D8D8D8",
"-. c #A11313",
";. c #620C0C",
":. c #E53434",
">. c #FBDEDE",
",. c gray27",
"<. c gray15",
"1. c #DFDFDF",
"2. c #FCE4E4",
"3. c #E42E2E",
"4. c #F08888",
"5. c #B7B7B7",
"6. c #020202",
"7. c #010101",
"8. c gray50",
"9. c #F18F8F",
"0. c #981212",
"q. c gray53",
"w. c gray11",
"e. c #F4F4F4",
"r. c #F08787",
"t. c #DDDDDD",
"y. c #3A3A3A",
"u. c #282828",
"i. c #B9B9B9",
"p. c #290505",
"a. c #BD1717",
"s. c #E42A2A",
"d. c #FAD7D7",
"f. c #FBFBFB",
"g. c gray91",
"h. c gray97",
"j. c #FBDDDD",
"k. c #ED7070",
"l. c #F1F1F1",
"z. c gray92",
"x. c #FFFEFE",
"c. c #EF8282",
"v. c #F29C9C",
"b. c #FFFDFD",
"n. c #F29696",
"m. c #E63737",
"M. c #E74444",
"N. c #530A0A",
"B. c #E42D2D",
"V. c #FEF5F5",
"C. c #FDF2F2",
"Z. c #EB5F5F",
"A. c #FAD8D8",
"S. c #FFFCFC",
"D. c #FBE0E0",
"F. c #EC6868",
"G. c #E32222",
"H. c #E74141",
"J. c #E95151",
"K. c #E63D3D",
"L. c #E84B4B",
"P. c #E94E4E",
"I. c #E53030",
"U. c #F18D0E",
"Y. c #EE8B0E",
"T. c #9D360E",
"R. c #8A220E",
"E. c #A43E0E",
"W. c #E9860E",
"Q. c #E27E0E",
"!. c #90280E",
"~. c #B14B0E",
"^. c #CE690E",
"/. c #C5600E",
"(. c #603805",
"). c yellow",
"_. c #FAFA00",
"`. c #303000",
"'. c #424200",
"]. c #EDED00",
"[. c #DBDB00",
"{. c #0F0F00",
"}. c #616100",
"|. c #A8A800",
" X c #949400",
".X c #666600",
"XX c #FCFC00",
"oX c #F8F800",
"OX c #414100",
"+X c #ECEC00",
"@X c #DADA00",
"#X c #0E0E00",
"$X c #5E5E00",
"%X c #A7A700",
"&X c #929200",
"*X c #646400",
"=X c #C1C100",
"-X c #D0D000",
";X c #1C1C00",
":X c #1B1B00",
">X c #D8D800",
",X c #B5B500",
"<X c #030300",
"1X c #333300",
"2X c #F7F700",
"3X c #FEFE00",
"4X c #7E7E00",
"5X c #6A6A00",
"6X c #3C3C00",
"7X c #2B2B00",
"8X c #EFEF00",
"9X c #F3F300",
"0X c #545400",
"qX c #626200",
"wX c #F2F200",
"eX c #E4E400",
"rX c #292900",
"tX c #040400",
"yX c #8C8C00",
"uX c #FDFD00",
"iX c #BDBD00",
"pX c #151500",
"aX c #141400",
"sX c #B3B300",
"dX c #989800",
"fX c #020200",
"gX c #131300",
"hX c #585800",
"jX c #5A5A00",
"kX c #222200",
"lX c #272700",
"zX c #5B5B00",
"xX c #121200",
"cX c #373700",
"vX c #5D5D00",
"bX c #474700",
"nX c #0A0A00",
"mX c #090900",
"MX c #010100",
/* pixels */
"                                                                                                    ",
"                                                                                                    ",
"                                                                                                    ",
"                                                                                                    ",
"                                                                                                    ",
"                                                                                                    ",
"                                        . X o O + @ # $ % &                                         ",
"                                  * = - ; : : : : : : : : > , @ <                                   ",
"                              1 2 3 4 : : : : : : : : : : : : : 5 6 7                               ",
"                            8 9 : : : : : : : : : : : : : : : : : : 0 q w                           ",
"                        e r ; 4 : : : : : : : : : : : : : : : : : : : t y u                         ",
"                      i p a : : : : : : : : : : : : : : : : : : : : : : s d f                       ",
"                    & g t : : : : : : : : : : : : : : : : : : : : : : : : 4 h f                     ",
"                  . j k : : : : : : : : : : : : : : : : : : : : : : : : : : 4 d l                   ",
"                  z x : : : : : : : : : : : : : : : : : : : : : : : : : : : : s c v                 ",
"                b n : : : : : : : : : : : : : : : : : : : : : : : : : : : : : : : m                 ",
"                M : : : : : : : : : : : : : : : : : : : : : : : : : : : : : : : : 0 u               ",
"              u N : : : : : : B V C Z A S B : : : : : : : D F G H J K : : : : : : : L               ",
"              P : : : : : : : I U Y Y Y T S : : : : : : R E W Y Y Q ! ~ : : : : : : 5 b             ",
"            ^ / : : : : : : ( ) Y Y _ Y Y ` ' : : : : : ] [ Y { _ Y } | : : : : : : :  .            ",
"            ..: : : : : : : K X.Y o.O.+.@.#.$.: : : : : F Y %.&.*.=.Y J : : : : : : : -.            ",
"            ;.: : : : : : : :.>.{ ,.  <.1.2.3.: : : : : 4.Y 5.6.7.8.Y 9.: : : : : : : N i           ",
"            0.: : : : : : : :.>.Y q.w.&.e.2.3.: : : : : r.Y t.y.u.i.Y 9.: : : : : : : : p.          ",
"            a.: : : : : : : s.d.Y f.g.h.Y j.~ : : : : : k.Y Y l.z.{ x.c.: : : : : : : : $           ",
"            5 : : : : : : : : v.b.Y Y Y x.n.B : : : : : m.U Y Y Y Y #.M.: : : : : : : : N.          ",
"            4 : : : : : : : : B.C V.Y C.C ~ : : : : : : B Z.A.S.b.D.F.: : : : : : : : :  .          ",
"            : : : : : : : : : : G.H.J.K.( : : : : : : : : : D L.P.I.: : : : : : : : : :  .          ",
"            : : : : : : : : : : : : : : : : : : : : : : : : : : : : : : : : : : : : : :  .          ",
"            : : : : : : : : : : : : : : : : : : : : : : : : : : : : : : : : : : : : : :  .          ",
"            : : : : : : : : : : : : : : : : : : : : : : : : : : : : : : : : : : : : : :  .          ",
"            : : : : : : : : : : : : : : : : : : : : : : : : : : : : : : : : : : : : : :  .          ",
"            : : : : : : : : : : : : : : : : : : : : : : : : : : : : : : : : : : : : : :  .          ",
"            : : : : : : : : : : : : : : : : : : : : : : : : : : : : : : : : : : : : : :  .          ",
"            : : : : : : : : : : : : : : : : : : : : : : : : : : : : : : : : : : : : : :  .          ",
"            : : : : : : : : : : : : : : : : : : : : : : : : : : : : : : : : : : : : : :  .          ",
"            : : : : : : : : : : : : : : : : : : : : : : : : : : : : : : : : : : : : : :  .          ",
"            : : : : : : : : : : : : : : : : : : : : : : : : : : : : : : : : : : : : : :  .          ",
"            U.U.U.U.U.Y.T.R.R.R.E.W.U.U.U.U.Q.!.R.R.R.~.U.U.U.U.U.^.R.R.R.R./.U.U.U.U.U.(.          ",
"            ).).).).)._.`.      '.].).).).).[.{.      }.).).).).).|.         X).).).).)..X          ",
"            ).).).).)._.`.      '.].).).).).[.{.      }.).).).).).|.         X).).).).)..X          ",
"            XX).).).).oX`.      OX+X).).).).@X#X      $X).).).).).%X        &X).).).).).*X          ",
"            =X).).).).-X;X      :X>X).).).).,X<X      1X2X).).).3X4X        5X).).).).).6X          ",
"            7X8X).).9X0X          qXwX).).eXrX        tXyXuX).).iXpX        aXsX).).).dXfX          ",
"              gXhXjXkX              lXzX0XxX            fXcXvXbXnX            mXOX}.6XMX            ",
"                                                                                                    ",
"                                                                                                    ",
"                                                                                                    ",
"                                                                                                    ",
"                                                                                                    ",
"                                                                                                    "
};
